<mxfile host="www.draw.io" modified="2023-11-29T07:11:08.597Z" agent="Mozilla/5.0 (Windows NT 10.0; Win64; x64) AppleWebKit/537.36 (KHTML, like Gecko) Chrome/119.0.0.0 Safari/537.36 Edg/119.0.0.0" etag="o9jelySXEj0o8rH-0J7J" version="22.1.4" type="device">
  <diagram id="4MHzZf12IdjCN7fdoaNl" name="第 1 页">
    <mxGraphModel dx="815" dy="449" grid="1" gridSize="1" guides="1" tooltips="1" connect="1" arrows="1" fold="1" page="1" pageScale="1" pageWidth="1169" pageHeight="827" math="0" shadow="0">
      <root>
        <mxCell id="0" />
        <mxCell id="1" parent="0" />
        <mxCell id="CCkl5qkvYxKrHv8DzvY5-9" value="&lt;b&gt;&lt;font style=&quot;font-size: 18px;&quot;&gt;SoC底板&lt;/font&gt;&lt;/b&gt;" style="rounded=0;whiteSpace=wrap;html=1;verticalAlign=top;fillColor=#dae8fc;strokeColor=#6c8ebf;" parent="1" vertex="1">
          <mxGeometry x="280" y="70" width="467" height="454" as="geometry" />
        </mxCell>
        <mxCell id="CCkl5qkvYxKrHv8DzvY5-1" value="&lt;b&gt;ZYNQ核心板&lt;/b&gt;" style="rounded=0;whiteSpace=wrap;html=1;verticalAlign=top;fillColor=#ffe6cc;strokeColor=#d79b00;" parent="1" vertex="1">
          <mxGeometry x="410" y="110" width="209" height="393" as="geometry" />
        </mxCell>
        <mxCell id="CCkl5qkvYxKrHv8DzvY5-2" value="&lt;b&gt;BANK 501&lt;br&gt;PS 1.8V&lt;br&gt;&lt;/b&gt;" style="rounded=0;whiteSpace=wrap;html=1;verticalAlign=middle;fillColor=#fff2cc;strokeColor=#d6b656;" parent="1" vertex="1">
          <mxGeometry x="436" y="277.5" width="70" height="91.5" as="geometry" />
        </mxCell>
        <mxCell id="CCkl5qkvYxKrHv8DzvY5-3" value="&lt;b&gt;BANK 500&lt;br&gt;PS 3.3V&lt;br&gt;&lt;/b&gt;" style="rounded=0;whiteSpace=wrap;html=1;verticalAlign=middle;fillColor=#fff2cc;strokeColor=#d6b656;" parent="1" vertex="1">
          <mxGeometry x="436" y="150" width="70" height="110" as="geometry" />
        </mxCell>
        <mxCell id="CCkl5qkvYxKrHv8DzvY5-5" value="&lt;b&gt;BANK 502&lt;br&gt;1.5V&lt;br&gt;&lt;/b&gt;" style="rounded=0;whiteSpace=wrap;html=1;verticalAlign=middle;fillColor=#fff2cc;strokeColor=#d6b656;" parent="1" vertex="1">
          <mxGeometry x="436" y="388" width="70" height="96" as="geometry" />
        </mxCell>
        <mxCell id="CCkl5qkvYxKrHv8DzvY5-7" value="&lt;b&gt;BANK34&lt;br&gt;PL 1.8V&lt;br&gt;&lt;/b&gt;" style="rounded=0;whiteSpace=wrap;html=1;verticalAlign=middle;fillColor=#e1d5e7;strokeColor=#9673a6;" parent="1" vertex="1">
          <mxGeometry x="524" y="277.5" width="70" height="91.5" as="geometry" />
        </mxCell>
        <mxCell id="vI11PCZts5h01opIFuYc-20" style="edgeStyle=orthogonalEdgeStyle;rounded=0;orthogonalLoop=1;jettySize=auto;html=1;exitX=1;exitY=0.5;exitDx=0;exitDy=0;startArrow=classic;startFill=1;" parent="1" source="vI11PCZts5h01opIFuYc-19" target="CCkl5qkvYxKrHv8DzvY5-3" edge="1">
          <mxGeometry relative="1" as="geometry" />
        </mxCell>
        <mxCell id="vI11PCZts5h01opIFuYc-19" value="&lt;b&gt;&lt;br&gt;&lt;/b&gt;" style="rounded=0;whiteSpace=wrap;html=1;verticalAlign=middle;fillColor=#cdeb8b;strokeColor=#36393d;" parent="1" vertex="1">
          <mxGeometry x="300" y="140" width="90" height="130" as="geometry" />
        </mxCell>
        <mxCell id="vI11PCZts5h01opIFuYc-22" style="edgeStyle=orthogonalEdgeStyle;rounded=0;orthogonalLoop=1;jettySize=auto;html=1;entryX=0;entryY=0.5;entryDx=0;entryDy=0;startArrow=classic;startFill=1;" parent="1" source="CCkl5qkvYxKrHv8DzvY5-10" target="CCkl5qkvYxKrHv8DzvY5-5" edge="1">
          <mxGeometry relative="1" as="geometry" />
        </mxCell>
        <mxCell id="CCkl5qkvYxKrHv8DzvY5-10" value="&lt;b&gt;DDR3&lt;br&gt;SDRAM&lt;br&gt;&lt;/b&gt;" style="rounded=0;whiteSpace=wrap;html=1;verticalAlign=middle;fillColor=#d5e8d4;strokeColor=#82b366;" parent="1" vertex="1">
          <mxGeometry x="310" y="388" width="70" height="96" as="geometry" />
        </mxCell>
        <mxCell id="vI11PCZts5h01opIFuYc-1" value="&lt;b&gt;QSPI Flash&lt;br&gt;&lt;/b&gt;" style="rounded=0;whiteSpace=wrap;html=1;verticalAlign=middle;fillColor=#d5e8d4;strokeColor=#82b366;" parent="1" vertex="1">
          <mxGeometry x="310" y="150" width="70" height="30" as="geometry" />
        </mxCell>
        <mxCell id="vI11PCZts5h01opIFuYc-2" value="&lt;b&gt;UART&lt;br&gt;&lt;/b&gt;" style="rounded=0;whiteSpace=wrap;html=1;verticalAlign=middle;fillColor=#d5e8d4;strokeColor=#82b366;" parent="1" vertex="1">
          <mxGeometry x="310" y="190" width="70" height="30" as="geometry" />
        </mxCell>
        <mxCell id="vI11PCZts5h01opIFuYc-26" style="edgeStyle=orthogonalEdgeStyle;rounded=0;orthogonalLoop=1;jettySize=auto;html=1;entryX=0;entryY=0.5;entryDx=0;entryDy=0;startArrow=classic;startFill=1;" parent="1" source="vI11PCZts5h01opIFuYc-21" target="CCkl5qkvYxKrHv8DzvY5-2" edge="1">
          <mxGeometry relative="1" as="geometry" />
        </mxCell>
        <mxCell id="vI11PCZts5h01opIFuYc-21" value="&lt;b&gt;&lt;br&gt;&lt;/b&gt;" style="rounded=0;whiteSpace=wrap;html=1;verticalAlign=middle;fillColor=#cdeb8b;strokeColor=#36393d;" parent="1" vertex="1">
          <mxGeometry x="300" y="275" width="90" height="97" as="geometry" />
        </mxCell>
        <mxCell id="vI11PCZts5h01opIFuYc-4" value="&lt;b&gt;SDIO&lt;br&gt;&lt;/b&gt;" style="rounded=0;whiteSpace=wrap;html=1;verticalAlign=middle;fillColor=#d5e8d4;strokeColor=#82b366;" parent="1" vertex="1">
          <mxGeometry x="310" y="330" width="70" height="30" as="geometry" />
        </mxCell>
        <mxCell id="vI11PCZts5h01opIFuYc-7" value="&lt;b&gt;LED/KEY&lt;br&gt;&lt;/b&gt;" style="rounded=0;whiteSpace=wrap;html=1;verticalAlign=middle;fillColor=#d5e8d4;strokeColor=#82b366;" parent="1" vertex="1">
          <mxGeometry x="310" y="230" width="70" height="30" as="geometry" />
        </mxCell>
        <mxCell id="vI11PCZts5h01opIFuYc-27" value="&lt;b&gt;&lt;br&gt;&lt;/b&gt;" style="rounded=0;whiteSpace=wrap;html=1;verticalAlign=middle;fillColor=#cdeb8b;strokeColor=#36393d;" parent="1" vertex="1">
          <mxGeometry x="639" y="140" width="90" height="343.5" as="geometry" />
        </mxCell>
        <mxCell id="vI11PCZts5h01opIFuYc-8" value="&lt;b&gt;VGA&lt;br&gt;&lt;/b&gt;" style="rounded=0;whiteSpace=wrap;html=1;verticalAlign=middle;fillColor=#d5e8d4;strokeColor=#82b366;" parent="1" vertex="1">
          <mxGeometry x="650" y="157" width="70" height="30" as="geometry" />
        </mxCell>
        <mxCell id="vI11PCZts5h01opIFuYc-9" value="&lt;b&gt;PS/2&lt;br&gt;&lt;/b&gt;" style="rounded=0;whiteSpace=wrap;html=1;verticalAlign=middle;fillColor=#d5e8d4;strokeColor=#82b366;" parent="1" vertex="1">
          <mxGeometry x="650" y="197" width="70" height="30" as="geometry" />
        </mxCell>
        <mxCell id="vI11PCZts5h01opIFuYc-10" value="&lt;b&gt;SPI&lt;br&gt;&lt;/b&gt;" style="rounded=0;whiteSpace=wrap;html=1;verticalAlign=middle;fillColor=#d5e8d4;strokeColor=#82b366;" parent="1" vertex="1">
          <mxGeometry x="650" y="237" width="70" height="30" as="geometry" />
        </mxCell>
        <mxCell id="vI11PCZts5h01opIFuYc-11" value="&lt;b&gt;I2C&lt;br&gt;&lt;/b&gt;" style="rounded=0;whiteSpace=wrap;html=1;verticalAlign=middle;fillColor=#d5e8d4;strokeColor=#82b366;" parent="1" vertex="1">
          <mxGeometry x="650" y="277" width="70" height="30" as="geometry" />
        </mxCell>
        <mxCell id="vI11PCZts5h01opIFuYc-12" value="&lt;b&gt;I2S&lt;br&gt;&lt;/b&gt;" style="rounded=0;whiteSpace=wrap;html=1;verticalAlign=middle;fillColor=#d5e8d4;strokeColor=#82b366;" parent="1" vertex="1">
          <mxGeometry x="650" y="317" width="70" height="30" as="geometry" />
        </mxCell>
        <mxCell id="vI11PCZts5h01opIFuYc-13" value="&lt;b&gt;LED/KEY&lt;br&gt;&lt;/b&gt;" style="rounded=0;whiteSpace=wrap;html=1;verticalAlign=middle;fillColor=#d5e8d4;strokeColor=#82b366;" parent="1" vertex="1">
          <mxGeometry x="650" y="357" width="70" height="30" as="geometry" />
        </mxCell>
        <mxCell id="vI11PCZts5h01opIFuYc-24" value="&lt;b&gt;USB HOST&lt;br&gt;&lt;/b&gt;" style="rounded=0;whiteSpace=wrap;html=1;verticalAlign=middle;fillColor=#d5e8d4;strokeColor=#82b366;" parent="1" vertex="1">
          <mxGeometry x="310" y="285" width="70" height="30" as="geometry" />
        </mxCell>
        <mxCell id="b809RvCxQrZmXj9oLqcO-1" value="&lt;b&gt;ChipLink&lt;br&gt;&lt;/b&gt;" style="rounded=0;whiteSpace=wrap;html=1;verticalAlign=middle;fillColor=#d5e8d4;strokeColor=#82b366;" parent="1" vertex="1">
          <mxGeometry x="650" y="397.5" width="70" height="30" as="geometry" />
        </mxCell>
        <mxCell id="aYqH0P1sDIpiYvYe7l0K-1" value="&lt;b&gt;SDRAM&lt;br&gt;&lt;/b&gt;" style="rounded=0;whiteSpace=wrap;html=1;verticalAlign=middle;fillColor=#d5e8d4;strokeColor=#82b366;" vertex="1" parent="1">
          <mxGeometry x="650" y="438.5" width="70" height="30" as="geometry" />
        </mxCell>
        <mxCell id="aYqH0P1sDIpiYvYe7l0K-3" value="&lt;b&gt;BANK33&lt;br&gt;PL 1.8V&lt;br&gt;&lt;/b&gt;" style="rounded=0;whiteSpace=wrap;html=1;verticalAlign=middle;fillColor=#e1d5e7;strokeColor=#9673a6;" vertex="1" parent="1">
          <mxGeometry x="524" y="150" width="70" height="110" as="geometry" />
        </mxCell>
        <mxCell id="aYqH0P1sDIpiYvYe7l0K-4" value="&lt;b&gt;BANK35&lt;br&gt;PL 1.8V&lt;br&gt;&lt;/b&gt;" style="rounded=0;whiteSpace=wrap;html=1;verticalAlign=middle;fillColor=#e1d5e7;strokeColor=#9673a6;" vertex="1" parent="1">
          <mxGeometry x="524" y="389" width="70" height="95" as="geometry" />
        </mxCell>
        <mxCell id="aYqH0P1sDIpiYvYe7l0K-6" style="edgeStyle=orthogonalEdgeStyle;rounded=0;orthogonalLoop=1;jettySize=auto;html=1;exitX=1;exitY=0.5;exitDx=0;exitDy=0;startArrow=classic;startFill=1;" edge="1" parent="1">
          <mxGeometry relative="1" as="geometry">
            <mxPoint x="593" y="322" as="sourcePoint" />
            <mxPoint x="639" y="322" as="targetPoint" />
          </mxGeometry>
        </mxCell>
        <mxCell id="aYqH0P1sDIpiYvYe7l0K-7" style="edgeStyle=orthogonalEdgeStyle;rounded=0;orthogonalLoop=1;jettySize=auto;html=1;exitX=1;exitY=0.5;exitDx=0;exitDy=0;startArrow=classic;startFill=1;" edge="1" parent="1">
          <mxGeometry relative="1" as="geometry">
            <mxPoint x="593" y="203" as="sourcePoint" />
            <mxPoint x="639" y="203" as="targetPoint" />
          </mxGeometry>
        </mxCell>
        <mxCell id="aYqH0P1sDIpiYvYe7l0K-8" style="edgeStyle=orthogonalEdgeStyle;rounded=0;orthogonalLoop=1;jettySize=auto;html=1;exitX=1;exitY=0.5;exitDx=0;exitDy=0;startArrow=classic;startFill=1;" edge="1" parent="1">
          <mxGeometry relative="1" as="geometry">
            <mxPoint x="594" y="435" as="sourcePoint" />
            <mxPoint x="640" y="435" as="targetPoint" />
          </mxGeometry>
        </mxCell>
      </root>
    </mxGraphModel>
  </diagram>
</mxfile>
